# xmcd
#
# Track frame offsets:
#	150
#	15453
#	30876
#	47437
#	62980
#	80277
#	104458
#	133807
#	153600
#	170317
#	179410
#	197791
#	214819
#	233836
#
# Disc length: 3598
#
# Revision: 1
# Processed by: cddbd v1.5.1PL0 Copyright (c) Steve Scherf et al.
# Submitted via: CDex 1.40Beta9
# Normalized: r0:TRMNUM
#
DISCID=b50e0c0e
DTITLE=The Rezonators - Delta, Man
DYEAR=2001
DGENRE=Blues
TTITLE0=Sharecropper
TTITLE1=Disconnected Rag
TTITLE2=Too Much Sugar For A Dime
TTITLE3=Avalon John
TTITLE4=Comiss'ry Blues
TTITLE5=I'm More Blue Than You
TTITLE6=Hard
TTITLE7=Fishin' Pole Blues
TTITLE8=Blues At Midnight
TTITLE9=Slammer
TTITLE10=The Blues  For Christmas
TTITLE11=White Blues
TTITLE12=Yellow Dog Blues
TTITLE13=Delta, Man
EXTD=YEAR: 2001 ID3G: 0
EXTT0=
EXTT1=
EXTT2=
EXTT3=
EXTT4=
EXTT5=
EXTT6=
EXTT7=
EXTT8=
EXTT9=
EXTT10=
EXTT11=
EXTT12=
EXTT13=
PLAYORDER=
